<svg width="1440" height="157" viewBox="0 0 1440 157" fill="none" xmlns="http://www.w3.org/2000/svg">
<path d="M-288 157H671.663H1668V0L1597.78 11.7764C1521.59 24.5543 1444.06 27.3578 1367.15 20.116L1359.68 19.4134C1295.64 13.3833 1231.13 14.3147 1167.28 22.1911L1082.81 32.6122C1020.16 40.3416 956.865 41.3832 893.992 35.7195L808.778 28.0433C737.56 21.6279 665.829 23.8186 595.135 34.5681L582 36.5654C503.451 48.5094 423.563 48.7222 344.951 37.1967L332.981 35.4417C255.922 24.1439 177.549 25.2912 100.853 38.8396V38.8396C9.7609 54.9314 -83.5645 53.5061 -174.123 34.6401L-288 10.9162V157Z" fill="#F7B16C" fill-opacity="0.69"/>
</svg>
